<svg width="75" height="75" viewBox="0 0 75 75" fill="none" xmlns="http://www.w3.org/2000/svg">
<rect width="75" height="75" rx="6" fill="black"/>
<g clip-path="url(#clip0_16_40)">
<path d="M39.7949 13.3264C39.393 13.1129 38.937 13.0004 38.4729 13.0004C38.0088 13.0004 37.5529 13.1129 37.1509 13.3264L24.5864 20.092L49.1673 33.3066V60.0623L61.6995 53.3165C62.0957 53.1037 62.4243 52.799 62.6525 52.4328C62.8807 52.0666 63.0005 51.6517 63 51.2295V25.8586L39.7949 13.3264Z" fill="white"/>
<path d="M24.6079 27.1939L13 33.3363L31.2717 43.1385V63L42.8581 56.8675C43.1524 56.7111 43.3968 56.4862 43.5666 56.2153C43.7364 55.9444 43.8257 55.6372 43.8255 55.3244V36.4619L26.6285 27.1939C26.3236 27.0246 25.9743 26.9352 25.6182 26.9352C25.2621 26.9352 24.9128 27.0246 24.6079 27.1939Z" fill="white"/>
<path d="M25.7257 59.2908V45.8981L13.2794 52.5945L25.7257 59.2908Z" fill="white"/>
</g>
<defs>
<clipPath id="clip0_16_40">
<rect width="50" height="50" fill="white" transform="translate(13 13)"/>
</clipPath>
</defs>
</svg>
