<svg width="383" height="73" viewBox="0 0 383 73" fill="none" xmlns="http://www.w3.org/2000/svg">
<mask id="mask0_43_16" style="mask-type:luminance" maskUnits="userSpaceOnUse" x="0" y="8" width="63" height="64">
<path d="M62.0628 8.98462H0V71.3154H62.0628V8.98462Z" fill="white"/>
</mask>
<g mask="url(#mask0_43_16)">
<mask id="mask1_43_16" style="mask-type:luminance" maskUnits="userSpaceOnUse" x="0" y="8" width="63" height="64">
<path d="M62.0628 8.98462H0V71.3154H62.0628V8.98462Z" fill="white"/>
</mask>
<g mask="url(#mask1_43_16)">
<path d="M33.2595 9.39149C32.7605 9.12527 32.1945 8.98511 31.6185 8.98511C31.0423 8.98511 30.4764 9.12527 29.9776 9.39149L14.3817 17.8256L44.8928 34.2991V67.653L60.4486 59.2439C60.9401 58.9783 61.3482 58.5987 61.6317 58.1422C61.9146 57.6857 62.0633 57.1685 62.0628 56.6418V25.0143L33.2595 9.39149Z" fill="#2F2F2F"/>
<path d="M14.4083 26.6789L0 34.3361L22.6799 46.5557V71.3155L37.0615 63.6707C37.4268 63.4758 37.7301 63.1951 37.9409 62.8576C38.1517 62.5195 38.2625 62.1366 38.2623 61.7468V38.2326L16.9165 26.6789C16.5381 26.468 16.1045 26.3564 15.6625 26.3564C15.2204 26.3564 14.7869 26.468 14.4083 26.6789Z" fill="#2F2F2F"/>
<path d="M15.7945 66.6912V49.9956L0.34549 58.3433L15.7945 66.6912Z" fill="#2F2F2F"/>
</g>
</g>
<path d="M101.537 58.3776C99.1511 58.3776 96.9297 57.9436 94.8722 57.0749C92.8442 56.2062 91.0701 54.9934 89.5493 53.4361C88.0285 51.8788 86.8359 50.0519 85.9709 47.9555C85.1361 45.8591 84.7185 43.568 84.7185 41.0823C84.7185 38.5965 85.1361 36.3054 85.9709 34.209C86.8057 32.0826 87.9838 30.2558 89.5046 28.7284C91.0254 27.1711 92.7995 25.9731 94.8274 25.1346C96.885 24.266 99.1215 23.8318 101.537 23.8318C103.952 23.8318 106.114 24.2361 108.023 25.0447C109.961 25.8533 111.601 26.9315 112.943 28.2792C114.285 29.6269 115.239 31.1243 115.806 32.7715L109.678 35.7364C109.111 34.1192 108.112 32.7865 106.681 31.7383C105.279 30.6601 103.565 30.121 101.537 30.121C99.5688 30.121 97.8394 30.5852 96.3483 31.5136C94.8571 32.442 93.6941 33.7299 92.8593 35.377C92.0542 36.9943 91.6516 38.896 91.6516 41.0823C91.6516 43.2685 92.0542 45.1852 92.8593 46.8324C93.6941 48.4796 94.8571 49.7674 96.3483 50.6958C97.8394 51.6242 99.5688 52.0884 101.537 52.0884C103.565 52.0884 105.279 51.5643 106.681 50.5161C108.112 49.4379 109.111 48.0903 109.678 46.473L115.806 49.4379C115.239 51.0851 114.285 52.5826 112.943 53.9303C111.601 55.2779 109.961 56.3561 108.023 57.1647C106.114 57.9733 103.952 58.3776 101.537 58.3776ZM131.448 58.3776C129.032 58.3776 126.826 57.8234 124.828 56.7155C122.86 55.6074 121.279 54.095 120.086 52.1783C118.923 50.2316 118.342 48.0303 118.342 45.5746C118.342 43.0888 118.923 40.8876 120.086 38.9709C121.279 37.0542 122.86 35.5417 124.828 34.4336C126.826 33.3256 129.032 32.7715 131.448 32.7715C133.863 32.7715 136.055 33.3256 138.023 34.4336C139.991 35.5417 141.557 37.0542 142.72 38.9709C143.912 40.8876 144.509 43.0888 144.509 45.5746C144.509 48.0303 143.912 50.2316 142.72 52.1783C141.557 54.095 139.991 55.6074 138.023 56.7155C136.055 57.8234 133.863 58.3776 131.448 58.3776ZM131.448 52.313C132.67 52.313 133.729 52.0285 134.624 51.4595C135.548 50.8905 136.264 50.0968 136.771 49.0786C137.307 48.0603 137.576 46.8923 137.576 45.5746C137.576 44.2568 137.307 43.1038 136.771 42.1155C136.264 41.0972 135.548 40.3036 134.624 39.7346C133.729 39.1356 132.67 38.8361 131.448 38.8361C130.225 38.8361 129.152 39.1356 128.227 39.7346C127.302 40.3036 126.572 41.0972 126.036 42.1155C125.528 43.1038 125.275 44.2568 125.275 45.5746C125.275 46.8923 125.528 48.0603 126.036 49.0786C126.572 50.0968 127.302 50.8905 128.227 51.4595C129.152 52.0285 130.225 52.313 131.448 52.313ZM148.461 57.8386V33.3106H154.724V38.1623L154.366 37.0841C154.932 35.6166 155.842 34.5385 157.094 33.8496C158.376 33.1309 159.868 32.7715 161.567 32.7715C163.416 32.7715 165.027 33.1608 166.398 33.9395C167.8 34.7182 168.888 35.8113 169.663 37.2189C170.439 38.5965 170.826 40.2137 170.826 42.0706V57.8386H164.117V43.5081C164.117 42.5497 163.923 41.7262 163.535 41.0373C163.178 40.3485 162.656 39.8094 161.97 39.4201C161.314 39.0308 160.538 38.8361 159.644 38.8361C158.779 38.8361 158.004 39.0308 157.318 39.4201C156.632 39.8094 156.095 40.3485 155.708 41.0373C155.35 41.7262 155.171 42.5497 155.171 43.5081V57.8386H148.461ZM187.002 58.1081C184.05 58.1081 181.754 57.3146 180.114 55.7272C178.504 54.1099 177.699 51.8638 177.699 48.9887V39.1506H173.583V33.3106H173.807C175.06 33.3106 176.013 32.9961 176.67 32.3672C177.355 31.7382 177.699 30.7949 177.699 29.537V27.7401H184.408V33.3106H190.133V39.1506H184.408V48.5395C184.408 49.378 184.557 50.0819 184.855 50.6509C185.153 51.1899 185.616 51.5943 186.242 51.8638C186.868 52.1333 187.643 52.2681 188.568 52.2681C188.777 52.2681 189.015 52.2531 189.284 52.2232C189.552 52.1932 189.835 52.1633 190.133 52.1333V57.8386C189.686 57.8986 189.179 57.9582 188.613 58.0183C188.046 58.0783 187.509 58.1081 187.002 58.1081ZM201.625 58.3776C199.865 58.3776 198.344 58.0929 197.062 57.5241C195.78 56.9553 194.795 56.1465 194.11 55.0983C193.424 54.0201 193.081 52.7473 193.081 51.2798C193.081 49.9022 193.394 48.6892 194.021 47.641C194.647 46.5629 195.601 45.6644 196.883 44.9456C198.195 44.2269 199.82 43.7177 201.759 43.4183L209.229 42.2053V47.1469L202.967 48.2699C202.012 48.4496 201.281 48.7641 200.775 49.2133C200.268 49.6326 200.014 50.2466 200.014 51.0552C200.014 51.8039 200.297 52.3879 200.864 52.8072C201.431 53.2265 202.131 53.4361 202.967 53.4361C204.07 53.4361 205.039 53.1965 205.874 52.7173C206.709 52.2382 207.35 51.5943 207.797 50.7856C208.274 49.9471 208.513 49.0336 208.513 48.0453V41.6662C208.513 40.7379 208.14 39.9592 207.395 39.3303C206.679 38.7013 205.695 38.3869 204.443 38.3869C203.249 38.3869 202.191 38.7163 201.267 39.3752C200.372 40.034 199.716 40.9026 199.299 41.9807L193.931 39.4201C194.408 38.0425 195.168 36.8595 196.212 35.8712C197.256 34.8829 198.508 34.1192 199.97 33.5801C201.431 33.041 203.026 32.7715 204.755 32.7715C206.813 32.7715 208.632 33.1459 210.213 33.8946C211.793 34.6433 213.016 35.6915 213.881 37.0392C214.775 38.3569 215.222 39.8993 215.222 41.6662V57.8386H208.96V53.8853L210.481 53.6158C209.765 54.6939 208.975 55.5924 208.11 56.3112C207.245 57.0002 206.277 57.5089 205.203 57.8386C204.129 58.1979 202.936 58.3776 201.625 58.3776ZM232.13 58.3776C229.685 58.3776 227.479 57.8234 225.51 56.7155C223.572 55.5774 222.021 54.0351 220.858 52.0884C219.725 50.1417 219.159 47.9555 219.159 45.5296C219.159 43.1038 219.725 40.9325 220.858 39.0158C221.992 37.0691 223.542 35.5417 225.51 34.4336C227.479 33.3256 229.685 32.7715 232.13 32.7715C233.949 32.7715 235.634 33.0859 237.185 33.7149C238.735 34.3438 240.063 35.2273 241.166 36.3653C242.269 37.4734 243.06 38.7912 243.537 40.3186L237.722 42.8343C237.304 41.6063 236.588 40.633 235.575 39.9143C234.591 39.1955 233.443 38.8361 232.13 38.8361C230.967 38.8361 229.924 39.1206 228.999 39.6896C228.105 40.2586 227.389 41.0523 226.852 42.0706C226.345 43.0888 226.092 44.2568 226.092 45.5746C226.092 46.8923 226.345 48.0603 226.852 49.0786C227.389 50.0968 228.105 50.8905 228.999 51.4595C229.924 52.0285 230.967 52.313 232.13 52.313C233.472 52.313 234.635 51.9536 235.619 51.2349C236.603 50.5161 237.304 49.5428 237.722 48.3149L243.537 50.8755C243.089 52.313 242.314 53.6008 241.211 54.7389C240.107 55.8769 238.78 56.7756 237.23 57.4343C235.679 58.0632 233.979 58.3776 232.13 58.3776ZM259.251 58.1081C256.299 58.1081 254.003 57.3146 252.363 55.7272C250.753 54.1099 249.947 51.8638 249.947 48.9887V39.1506H245.832V33.3106H246.056C247.308 33.3106 248.263 32.9961 248.919 32.3672C249.605 31.7382 249.947 30.7949 249.947 29.537V27.7401H256.657V33.3106H262.382V39.1506H256.657V48.5395C256.657 49.378 256.806 50.0819 257.104 50.6509C257.403 51.1899 257.865 51.5943 258.491 51.8638C259.117 52.1333 259.893 52.2681 260.817 52.2681C261.026 52.2681 261.264 52.2531 261.533 52.2232C261.801 52.1932 262.084 52.1633 262.382 52.1333V57.8386C261.935 57.8986 261.429 57.9582 260.862 58.0183C260.295 58.0783 259.758 58.1081 259.251 58.1081ZM266.806 57.8386V24.3709H273.739V51.7739H287.829V57.8386H266.806ZM302.54 58.3776C299.945 58.3776 297.694 57.8088 295.786 56.6706C293.877 55.5026 292.401 53.9452 291.357 51.9986C290.314 50.0519 289.792 47.8956 289.792 45.5296C289.792 43.0739 290.329 40.8876 291.402 38.9709C292.506 37.0542 293.982 35.5417 295.83 34.4336C297.679 33.3256 299.767 32.7715 302.093 32.7715C304.031 32.7715 305.746 33.0859 307.236 33.7149C308.728 34.3139 309.98 35.1674 310.994 36.2755C312.038 37.3836 312.828 38.6714 313.364 40.1389C313.901 41.5764 314.17 43.1487 314.17 44.8558C314.17 45.3349 314.14 45.8142 314.08 46.2933C314.051 46.7426 313.976 47.1319 313.856 47.4613H295.562V42.5198H310.054L306.879 44.8558C307.177 43.568 307.162 42.4299 306.834 41.4416C306.506 40.4234 305.925 39.6297 305.089 39.0607C304.284 38.4617 303.286 38.1623 302.093 38.1623C300.93 38.1623 299.931 38.4468 299.096 39.0158C298.261 39.5848 297.635 40.4234 297.217 41.5315C296.8 42.6396 296.635 43.9873 296.725 45.5746C296.606 46.9522 296.77 48.1651 297.217 49.2133C297.664 50.2616 298.35 51.0851 299.275 51.6841C300.199 52.2531 301.318 52.5376 302.629 52.5376C303.822 52.5376 304.836 52.298 305.671 51.8189C306.536 51.3397 307.207 50.6808 307.684 49.8423L313.051 52.4029C312.574 53.6008 311.814 54.649 310.77 55.5475C309.756 56.4459 308.549 57.1496 307.147 57.6589C305.746 58.1379 304.21 58.3776 302.54 58.3776ZM325.333 57.8386L315.716 33.3106H322.962L329.627 51.8638H326.853L333.518 33.3106H340.764L331.147 57.8386H325.333ZM355.045 58.3776C352.451 58.3776 350.2 57.8088 348.291 56.6706C346.382 55.5026 344.906 53.9452 343.863 51.9986C342.819 50.0519 342.297 47.8956 342.297 45.5296C342.297 43.0739 342.834 40.8876 343.908 38.9709C345.011 37.0542 346.487 35.5417 348.336 34.4336C350.184 33.3256 352.272 32.7715 354.598 32.7715C356.536 32.7715 358.251 33.0859 359.742 33.7149C361.233 34.3139 362.485 35.1674 363.499 36.2755C364.543 37.3836 365.333 38.6714 365.87 40.1389C366.407 41.5764 366.675 43.1487 366.675 44.8558C366.675 45.3349 366.645 45.8142 366.586 46.2933C366.556 46.7426 366.481 47.1319 366.362 47.4613H348.068V42.5198H362.56L359.384 44.8558C359.682 43.568 359.667 42.4299 359.34 41.4416C359.011 40.4234 358.43 39.6297 357.595 39.0607C356.79 38.4617 355.791 38.1623 354.598 38.1623C353.435 38.1623 352.436 38.4468 351.601 39.0158C350.766 39.5848 350.14 40.4234 349.723 41.5315C349.305 42.6396 349.141 43.9873 349.231 45.5746C349.111 46.9522 349.275 48.1651 349.723 49.2133C350.17 50.2616 350.855 51.0851 351.78 51.6841C352.704 52.2531 353.823 52.5376 355.135 52.5376C356.328 52.5376 357.341 52.298 358.177 51.8189C359.041 51.3397 359.712 50.6808 360.189 49.8423L365.557 52.4029C365.079 53.6008 364.319 54.649 363.276 55.5475C362.262 56.4459 361.054 57.1496 359.653 57.6589C358.251 58.1379 356.715 58.3776 355.045 58.3776ZM370.626 57.8386V23.8318H377.336V57.8386H370.626Z" fill="#2F2F2F"/>
</svg>
